<svg version="1.1" id="Layer_1" xmlns="http://www.w3.org/2000/svg" xmlns:xlink="http://www.w3.org/1999/xlink" x="0px" y="0px"
     width="100%" viewBox="0 0 500 500" enable-background="new 0 0 500 500" xml:space="preserve">
<path fill="none" opacity="0" stroke="none" 
    d="M272.000000,501.000000 C181.333359,501.000000 91.166710,501.000000 1.000048,501.000000 C1.000032,334.333405 1.000032,167.666794 1.000016,1.000138 C167.666565,1.000092 334.333130,1.000092 500.999756,1.000046 C500.999847,167.666519 500.999847,334.333038 500.999939,500.999786 C424.833344,501.000000 348.666656,501.000000 272.000000,501.000000 M90.245972,207.999817 C86.485786,209.635620 82.725609,211.271408 78.324150,213.149567 C73.515732,218.022202 68.707321,222.894821 63.333378,228.179382 C53.471317,243.731384 53.280445,265.285095 63.056309,278.727661 C67.712746,283.391388 72.369186,288.055115 77.566948,293.172882 C80.721649,294.700348 83.876358,296.227783 87.729935,298.103180 C92.496490,298.658020 97.263039,299.212860 102.797249,299.794037 C115.146713,296.868591 120.897896,290.576355 120.478394,279.623871 C119.075630,280.312225 117.492905,280.567413 116.902985,281.470825 C114.643524,284.931091 111.668289,284.559845 108.586037,283.311707 C106.612915,282.512665 104.826569,281.252380 102.563110,279.652130 C97.979713,274.445343 93.396324,269.238556 88.663651,263.367676 C85.589340,257.519012 82.515030,251.670364 79.266212,245.038116 C78.279640,241.371613 76.945366,237.757416 76.384102,234.026932 C75.428391,227.674789 74.237305,221.101028 80.892937,215.902023 C84.254761,216.283401 87.616592,216.664780 91.425545,217.539413 C94.604462,219.723953 97.783379,221.908493 101.249580,224.689987 C106.826012,231.477554 112.402443,238.265121 118.121346,245.743179 C120.143082,249.830093 122.164818,253.917023 124.236496,258.792572 C128.037079,270.676849 127.230263,282.133484 120.498734,293.448669 C116.340767,297.323212 112.182800,301.197784 107.340324,305.188049 C102.917389,307.933441 98.494446,310.678833 94.071503,313.424225 C94.096458,313.893982 94.121414,314.363739 94.146370,314.833496 C95.388557,315.044678 96.659660,315.538208 97.867538,315.414459 C101.594292,315.032654 105.296898,314.415222 109.695831,314.089539 C112.424171,315.812439 115.152512,317.535339 118.065689,319.913910 C120.694031,323.640442 123.322365,327.366974 126.175705,331.717377 C128.467819,333.760406 130.759918,335.803436 133.510880,338.363647 C135.639435,339.312073 137.767975,340.260498 140.437408,341.694336 C141.403534,341.941406 142.370087,342.186798 143.335739,342.435791 C162.921829,347.486053 175.390793,328.114532 172.559372,313.588898 C172.244888,311.975586 170.673309,310.607330 169.684738,309.125427 C168.249298,316.944061 166.297470,320.645874 161.953201,321.423615 C156.648895,322.373230 155.277084,317.654144 152.652252,314.612671 C149.404221,310.849060 145.782272,307.408142 141.863052,303.263916 C139.244614,302.548553 136.626175,301.833160 133.158081,300.865417 C131.105713,300.917450 129.053329,300.969513 126.138000,300.908508 C124.422859,300.954803 122.707726,301.001099 120.773087,300.426788 C121.537521,299.685028 122.301956,298.943298 123.721703,297.978333 C127.849159,294.337524 131.976624,290.696686 136.713120,286.782318 C140.823212,280.109924 146.482758,273.919830 148.739136,266.670502 C154.432861,248.377441 148.951736,232.377640 135.071259,218.537216 C132.404388,216.627075 129.737518,214.716934 126.704132,212.244339 C124.131584,211.179871 121.559036,210.115387 118.368164,208.591461 C112.591774,207.819778 106.815384,207.048080 100.211014,206.129425 C97.144821,206.765274 94.078629,207.401138 90.245972,207.999817 Z"/>

<path fill="#4EC2DB" d="M63.898903,227.767456 C68.707321,222.894821 73.515732,218.022202 78.678978,213.360352 C79.360199,214.392181 79.686592,215.213211 80.012985,216.034241 C74.237305,221.101028 75.428391,227.674789 76.384102,234.026932 C76.945366,237.757416 78.279640,241.371613 78.918007,245.536377 C78.046242,247.625977 77.080994,249.213806 77.068344,250.809189 C76.957527,264.778290 77.016800,278.748749 77.025635,292.718811 C72.369186,288.055115 67.712746,283.391388 63.291206,278.106445 C63.650375,260.912628 63.774639,244.340042 63.898903,227.767456 Z"/>
<path fill="#0D5DB4" d="M135.344025,219.080032 C148.951736,232.377640 154.432861,248.377441 148.739136,266.670502 C146.482758,273.919830 140.823212,280.109924 136.053375,286.723816 C134.928650,284.989899 134.068039,283.316528 134.059357,281.638763 C133.963058,263.032684 133.953308,244.425674 134.058151,225.819702 C134.070831,223.570801 134.895615,221.326477 135.344025,219.080032 Z"/>
<path fill="#054EAF" d="M142.321869,303.827820 C145.782272,307.408142 149.404221,310.849060 152.652252,314.612671 C155.277084,317.654144 156.648895,322.373230 161.953201,321.423615 C166.297470,320.645874 168.249298,316.944061 169.684738,309.125427 C170.673309,310.607330 172.244888,311.975586 172.559372,313.588898 C175.390793,328.114532 162.921829,347.486053 143.335739,342.435791 C142.370087,342.186798 141.403534,341.941406 140.340759,341.054016 C140.496872,338.640625 140.952789,336.869293 140.968079,335.094208 C141.043594,326.334839 140.934647,317.573456 141.062042,308.815247 C141.086304,307.147003 141.882065,305.490021 142.321869,303.827820 Z"/>
<path fill="#166AB9" d="M135.207642,218.808624 C134.895615,221.326477 134.070831,223.570801 134.058151,225.819702 C133.953308,244.425674 133.963058,263.032684 134.059357,281.638763 C134.068039,283.316528 134.928650,284.989899 135.748840,286.860596 C131.976624,290.696686 127.849159,294.337524 123.263443,297.767517 C122.221153,296.068359 121.637115,294.580017 121.053078,293.091675 C127.230263,282.133484 128.037079,270.676849 124.592529,258.288757 C125.298843,256.100800 125.938919,254.419022 125.952499,252.732193 C126.042931,241.505508 125.945595,230.277252 126.047722,219.050766 C126.066681,216.966507 126.713570,214.887955 127.070648,212.806778 C129.737518,214.716934 132.404388,216.627075 135.207642,218.808624 Z"/>
<path fill="#6778FB" d="M279.042419,277.742065 C272.925293,281.679657 268.775574,281.555664 263.029572,277.263672 C257.792694,273.351959 255.777542,273.820343 252.841064,280.803955 C252.841064,267.485748 252.841064,255.453079 252.841064,243.190475 C256.540131,243.190475 260.158752,243.190475 264.494995,243.190475 C263.813721,250.859772 267.294830,258.841187 261.596344,265.413910 C266.677826,266.927032 271.930481,268.491119 277.585815,270.407349 C278.339783,273.086975 278.691101,275.414520 279.042419,277.742065 Z"/>
<path fill="#2A85C4" d="M117.978867,245.052673 C112.402443,238.265121 106.826012,231.477554 101.122948,223.958252 C101.010544,217.576477 101.024765,211.926437 101.038986,206.276398 C106.815384,207.048080 112.591774,207.819778 118.679276,209.286469 C118.991447,213.453247 119.090836,216.928345 118.973938,220.396149 C118.696831,228.616837 118.317116,236.834045 117.978867,245.052673 Z"/>
<path fill="#F06BCB" d="M318.979004,245.833130 C324.778320,240.561584 339.672272,241.837234 344.202576,247.993500 C346.705658,251.395020 346.235962,255.453430 342.928284,258.175873 C341.705078,259.182648 340.318878,259.991333 338.552979,261.201538 C339.702698,261.675262 340.252655,261.914734 340.811859,262.130249 C344.833191,263.680115 348.853210,265.650574 348.447296,270.672302 C348.051483,275.569031 344.124176,277.956635 339.819366,279.231873 C337.168640,280.017090 334.310150,280.100983 331.283142,279.955627 C331.044403,279.174530 331.067474,278.937531 331.476135,278.762146 C337.233307,278.352417 339.169800,276.195038 337.048798,271.518829 C335.263428,267.582642 331.994324,264.319397 329.512665,260.936340 C333.190582,259.441254 334.493195,257.807404 333.815521,254.750549 C332.479248,248.722839 325.100464,244.810272 319.029053,246.644836 C319.005249,246.193665 318.992126,246.013397 318.979004,245.833130 Z"/>
<path fill="#43B4D5" d="M77.296295,292.945862 C77.016800,278.748749 76.957527,264.778290 77.068344,250.809189 C77.080994,249.213806 78.046242,247.625977 79.005264,245.928192 C82.515030,251.670364 85.589340,257.519012 88.359306,263.804169 C87.704391,265.768768 87.063858,267.294312 87.050514,268.825348 C86.966484,278.467987 87.021797,288.111816 87.031067,297.755249 C83.876358,296.227783 80.721649,294.700348 77.296295,292.945862 Z"/>
<path fill="#AA6ADD" d="M290.118439,254.033157 C293.303192,249.979813 291.012177,246.705322 288.373810,243.477173 C296.233429,242.460068 303.099548,246.849701 306.000336,254.904343 C308.413025,261.603699 310.504730,268.418640 312.880310,275.906311 C313.005890,277.700775 312.989746,278.771301 312.973572,279.841827 C307.667511,281.091309 302.791504,279.200867 299.860107,273.700378 C298.129669,270.453308 295.987244,269.636597 292.391479,269.702637 C291.981140,269.446289 291.987518,269.073914 292.401947,268.997742 C294.196838,268.764191 295.577332,268.606842 297.398682,268.399231 C296.059601,263.523712 294.954681,259.215088 293.612579,254.981659 C293.447815,254.461945 292.014191,254.344498 290.906006,254.045746 C290.468414,254.044952 290.293427,254.039062 290.118439,254.033157 Z"/>
<path fill="#6B66CC" d="M205.330170,275.880798 C205.546738,278.679047 205.074203,280.244598 202.173996,280.047913 C199.405457,279.860138 196.614182,280.007416 193.577545,280.007416 C193.577545,267.550293 193.577545,255.618546 193.577545,243.311249 C197.407852,243.311249 201.104309,243.311249 205.330627,243.311249 C205.330627,254.151245 205.330627,264.772736 205.330170,275.880798 Z"/>
<path fill="#CD789E" d="M423.960052,278.923828 C415.481598,282.119751 410.567535,278.669952 411.011993,269.768860 C411.169922,266.606750 411.947998,263.265808 407.305573,261.825165 C406.984283,261.519775 406.986450,261.349548 407.326019,261.184204 C413.455536,258.757874 414.770599,255.316956 410.492859,251.215134 C407.759705,248.594406 403.573486,247.489105 399.918701,245.518402 C399.569183,244.960831 399.339661,244.589279 399.110168,244.217712 C405.257843,240.886963 411.479462,242.448181 417.535645,244.287918 C421.151581,245.386353 424.034058,247.692871 424.167480,252.099854 C424.294098,256.282501 421.704102,258.395569 418.386108,260.017670 C417.507233,260.447327 416.626068,260.872375 416.802521,260.786743 C419.283783,265.315125 421.684418,269.696350 423.987549,274.554688 C423.913422,276.329193 423.936737,277.626495 423.960052,278.923828 Z"/>
<path fill="#379ECD" d="M87.380508,297.929199 C87.021797,288.111816 86.966484,278.467987 87.050514,268.825348 C87.063858,267.294312 87.704391,265.768768 88.433945,264.136230 C93.396324,269.238556 97.979713,274.445343 102.716171,280.327698 C102.589348,287.258087 102.309471,293.512878 102.029594,299.767700 C97.263039,299.212860 92.496490,298.658020 87.380508,297.929199 Z"/>
<path fill="#F18C67" d="M434.059875,245.108871 C441.788971,240.005264 451.710968,242.576370 457.690674,250.314774 C463.695343,258.085449 462.045654,268.921326 453.625488,276.164001 C453.025970,276.016785 452.901917,275.899780 452.859619,275.355408 C454.138245,265.265228 449.323273,257.961060 443.125488,251.537292 C440.765198,249.090958 437.117645,247.886642 434.058411,245.864426 C434.059998,245.444687 434.059937,245.276779 434.059875,245.108871 Z"/>
<path fill="#CE6BD5" d="M313.443726,279.863525 C312.989746,278.771301 313.005890,277.700775 313.044250,276.226501 C313.708466,274.643341 314.865662,273.480988 314.905365,272.281647 C315.101105,266.370361 314.653809,260.419800 315.153290,254.544296 C315.397156,251.675430 317.210144,248.939972 318.645966,245.988617 C318.992126,246.013397 319.005249,246.193665 318.998749,247.026123 C319.881775,249.130096 320.443298,251.191025 321.749359,251.922455 C326.130920,254.376236 327.355042,258.038757 327.069275,262.683319 C326.907837,265.307159 327.255280,267.976410 326.943817,270.573639 C326.493011,274.333130 327.871002,276.928772 331.090515,278.700562 C331.067474,278.937531 331.044403,279.174530 330.987488,279.767517 C325.273712,280.044067 319.593811,279.964661 313.443726,279.863525 Z"/>
<path fill="#B66BC0" d="M406.986450,261.349548 C406.986450,261.349548 406.984283,261.519775 406.983612,261.603882 C406.609985,265.547455 406.176178,269.402374 405.889496,273.268219 C405.744141,275.228302 405.864105,277.208069 405.864105,279.590454 C401.852661,279.590454 398.171722,279.590454 394.048859,279.590454 C394.048859,270.100098 393.758270,260.683929 394.248108,251.308517 C394.374451,248.890289 396.953033,246.600159 398.757629,244.234451 C399.339661,244.589279 399.569183,244.960831 399.564392,245.677612 C399.212952,247.682541 398.546722,250.579163 399.064301,250.808929 C403.770325,252.897949 405.180786,257.232025 406.986450,261.349548 Z"/>
<path fill="#955CF7" d="M362.113922,273.870422 C362.115356,267.392151 361.874451,261.382019 362.217529,255.405426 C362.396301,252.291214 363.604492,249.236069 364.394867,245.958694 C366.572327,248.646805 368.255402,250.390778 369.538574,252.391251 C371.229218,255.026962 373.602753,257.757050 373.912109,260.636749 C374.579468,266.849213 374.117310,273.182983 374.117310,279.734436 C370.002686,279.734436 366.412964,279.734436 362.113861,279.734436 C362.113861,277.883606 362.113861,276.118042 362.113922,273.870422 Z"/>
<path fill="#DB828C" d="M433.719849,245.145370 C434.059937,245.276779 434.059998,245.444687 433.861572,246.177063 C433.204254,249.045029 431.759796,251.726532 432.471100,253.581238 C434.620605,259.185974 437.606934,264.469788 439.934601,270.137451 C439.406311,273.537231 439.210541,276.678253 439.014771,279.819275 C435.844635,278.592438 432.674500,277.365601 429.080933,275.974915 C427.952576,276.713470 426.311707,277.787476 424.315430,278.892639 C423.936737,277.626495 423.913422,276.329193 424.209045,274.833374 C425.686005,274.562103 426.844055,274.489319 428.222839,274.402618 C422.237000,259.498718 423.715088,251.722458 433.719849,245.145370 Z"/>
<path fill="#1B75BD" d="M118.050110,245.397919 C118.317116,236.834045 118.696831,228.616837 118.973938,220.396149 C119.090836,216.928345 118.991447,213.453247 118.988434,209.516190 C121.559036,210.115387 124.131584,211.179871 126.887390,212.525558 C126.713570,214.887955 126.066681,216.966507 126.047722,219.050766 C125.945595,230.277252 126.042931,241.505508 125.952499,252.732193 C125.938919,254.419022 125.298843,256.100800 124.567551,257.894409 C122.164818,253.917023 120.143082,249.830093 118.050110,245.397919 Z"/>
<path fill="#58D4E2" d="M63.616142,227.973419 C63.774639,244.340042 63.650375,260.912628 63.208900,277.770416 C53.280445,265.285095 53.471317,243.731384 63.616142,227.973419 Z"/>
<path fill="#AA6ADD" d="M367.071899,244.992813 C374.144501,240.430984 385.904144,242.162384 391.059418,248.524567 C394.867706,253.224380 392.894226,260.208557 386.160980,263.830566 C383.153564,265.448364 379.470917,265.810944 375.810577,266.176086 C379.895081,263.767670 381.771820,260.532501 380.731598,256.094208 C379.600220,251.267075 374.656952,245.390747 368.265747,245.680695 C367.571014,245.248001 367.341644,245.090942 367.071899,244.992813 Z"/>
<path fill="#0D5DB4" d="M142.092468,303.545868 C141.882065,305.490021 141.086304,307.147003 141.062042,308.815247 C140.934647,317.573456 141.043594,326.334839 140.968079,335.094208 C140.952789,336.869293 140.496872,338.640625 140.070312,340.811279 C137.767975,340.260498 135.639435,339.312073 133.329803,337.700012 C133.432037,335.104645 133.943924,333.174866 133.960358,331.240875 C134.045715,321.200439 134.004715,311.158936 134.007736,301.117798 C136.626175,301.833160 139.244614,302.548553 142.092468,303.545868 Z"/>
<path fill="#AA6ADD" d="M214.161194,263.176697 C213.651917,264.297333 213.142639,265.417938 212.137466,267.629761 C219.371414,264.596954 224.832535,267.365265 230.662598,270.548767 C230.996826,274.002289 230.994965,276.865662 230.993118,279.729034 C226.920990,278.967773 222.418701,279.057190 218.869217,277.262360 C212.159348,273.869385 210.853424,273.695557 206.828232,279.597076 C205.187943,275.047119 208.117767,267.258148 213.530640,262.947021 C213.964432,262.962189 214.161194,263.176697 214.161194,263.176697 Z"/>
<path fill="#AA6ADD" d="M230.152191,256.283234 C228.127167,257.688690 226.738678,259.587128 223.756897,256.674500 C221.508560,254.478287 217.534332,253.724518 214.186340,253.135422 C212.814697,252.894058 211.069489,254.775757 208.960342,256.002075 C205.363113,253.226913 205.658890,247.216919 210.809921,244.114258 C215.408386,241.344421 220.014313,242.031296 224.495773,244.412766 C226.238922,245.339111 227.825729,246.559692 229.743576,248.322571 C230.053009,251.427032 230.102600,253.855133 230.152191,256.283234 Z"/>
<path fill="#2A85C4" d="M102.413422,299.780884 C102.309471,293.512878 102.589348,287.258087 102.912857,280.601074 C104.826569,281.252380 106.612915,282.512665 108.586037,283.311707 C111.668289,284.559845 114.643524,284.931091 116.902985,281.470825 C117.492905,280.567413 119.075630,280.312225 120.478394,279.623871 C120.897896,290.576355 115.146713,296.868591 102.413422,299.780884 Z"/>
<path fill="#166AB9" d="M133.582916,300.991608 C134.004715,311.158936 134.045715,321.200439 133.960358,331.240875 C133.943924,333.174866 133.432037,335.104645 133.100372,337.441406 C130.759918,335.803436 128.467819,333.760406 126.234421,331.016174 C126.529083,320.550476 126.765022,310.786011 127.000961,301.021545 C129.053329,300.969513 131.105713,300.917450 133.582916,300.991608 Z"/>
<path fill="#955CF7" d="M289.786438,254.144653 C290.293427,254.039062 290.468414,254.044952 290.827423,254.426270 C290.304749,257.485687 289.217987,260.140198 289.006531,262.862671 C288.823212,265.222443 287.919647,268.511627 291.987518,269.073914 C291.987518,269.073914 291.981140,269.446289 291.978912,269.632355 C291.617584,270.749634 290.727112,271.888947 290.995544,272.574341 C291.930389,274.960999 293.266602,277.190430 295.077393,280.692688 C289.108490,279.901794 284.154663,279.245422 279.121643,278.165558 C278.691101,275.414520 278.339783,273.086975 277.982971,270.348633 C281.803131,264.710571 285.628784,259.483368 289.786438,254.144653 Z"/>
<path fill="#0D5DB4" d="M168.000549,243.178696 C169.474167,243.178696 170.947784,243.178696 172.629089,243.178696 C174.373428,254.505051 169.757095,266.913757 177.943146,277.894958 C177.919968,278.995575 177.956253,279.414948 177.992523,279.834351 C174.774628,279.137482 171.556732,278.440613 168.160675,276.965576 C167.988510,265.184479 167.994537,254.181595 168.000549,243.178696 Z"/>
<path fill="#054EAF" d="M167.554321,243.108398 C167.994537,254.181595 167.988510,265.184479 167.969330,276.665527 C163.038773,275.268433 161.465668,270.949341 161.218170,266.447662 C160.800339,258.847839 161.103561,251.208389 161.103561,243.038116 C163.260269,243.038116 165.184189,243.038116 167.554321,243.108398 Z"/>
<path fill="#6B66CC" d="M178.187149,280.109894 C177.956253,279.414948 177.919968,278.995575 177.950195,278.265869 C179.923996,277.633118 181.820694,277.207397 183.740845,277.010864 C187.243790,276.652374 188.772324,275.384369 186.183350,271.185791 C185.995895,261.291565 185.989441,252.204941 185.982971,243.118317 C187.768570,243.118317 189.554153,243.118317 191.642273,243.118317 C191.642273,252.389526 191.973129,261.362976 191.522781,270.297058 C191.235626,275.993561 188.199936,278.315155 182.643936,279.007202 C181.188583,279.188477 179.800659,279.911316 178.187149,280.109894 Z"/>
<path fill="#1B75BD" d="M126.569481,300.965027 C126.765022,310.786011 126.529083,320.550476 126.121925,330.704224 C123.322365,327.366974 120.694031,323.640442 118.048904,319.155029 C118.358727,312.990662 118.685341,307.585144 119.340469,302.108948 C120.131783,301.693634 120.594604,301.348938 121.028488,300.996094 C120.999557,300.987946 120.992584,301.047394 120.992584,301.047394 C122.707726,301.001099 124.422859,300.954803 126.569481,300.965027 Z"/>
<path fill="#2A85C4" d="M119.011963,302.179626 C118.685341,307.585144 118.358727,312.990662 117.956482,318.827209 C115.152512,317.535339 112.424171,315.812439 109.343338,313.571777 C108.668839,310.393433 108.346840,307.732910 108.024841,305.072357 C112.182800,301.197784 116.340767,297.323212 120.775909,293.270172 C121.637115,294.580017 122.221153,296.068359 122.935791,297.879120 C122.301956,298.943298 121.537521,299.685028 120.882835,300.737091 C120.992584,301.047394 120.999557,300.987946 120.746323,300.832092 C119.999374,301.177338 119.505669,301.678467 119.011963,302.179626 Z"/>
<path fill="#3E55BE" d="M185.535706,243.070282 C185.989441,252.204941 185.995895,261.291565 185.963684,270.872131 C181.578293,269.889709 179.712250,266.836365 179.800735,262.278229 C179.922409,256.010895 179.831207,249.739441 179.831207,243.022263 C181.874756,243.022263 183.481598,243.022263 185.535706,243.070282 Z"/>
<path fill="#379ECD" d="M100.625000,206.202911 C101.024765,211.926437 101.010544,217.576477 100.979309,223.659775 C97.783379,221.908493 94.604462,219.723953 91.205750,216.840729 C90.994774,213.440353 91.003609,210.738678 91.012436,208.036987 C94.078629,207.401138 97.144821,206.765274 100.625000,206.202911 Z"/>
<path fill="#379ECD" d="M107.682587,305.130188 C108.346840,307.732910 108.668839,310.393433 108.999863,313.471649 C105.296898,314.415222 101.594292,315.032654 97.867538,315.414459 C96.659660,315.538208 95.388557,315.044678 94.146370,314.833496 C94.121414,314.363739 94.096458,313.893982 94.071503,313.424225 C98.494446,310.678833 102.917389,307.933441 107.682587,305.130188 Z"/>
<path fill="#F18C67" d="M439.382874,279.919098 C439.210541,276.678253 439.406311,273.537231 440.206696,270.314606 C444.260620,273.246246 446.890747,278.025879 452.777832,275.782806 C452.901917,275.899780 453.025970,276.016785 453.329926,276.321014 C449.527283,280.044617 444.899994,281.054169 439.382874,279.919098 Z"/>
<path fill="#43B4D5" d="M90.629204,208.018402 C91.003609,210.738678 90.994774,213.440353 90.982178,216.594101 C87.616592,216.664780 84.254761,216.283401 80.452957,215.968140 C79.686592,215.213211 79.360199,214.392181 78.999619,213.239182 C82.725609,211.271408 86.485786,209.635620 90.629204,208.018402 Z"/>
<path fill="#CE6BD5" d="M231.339020,279.729309 C230.994965,276.865662 230.996826,274.002289 230.993011,270.713257 C232.426086,269.238342 233.864868,268.189087 236.084625,266.570251 C236.661636,267.929504 238.316681,270.005646 238.226044,272.002563 C238.049438,275.894073 235.591644,278.608185 231.339020,279.729309 Z"/>
<path fill="#CE6BD5" d="M230.488434,256.182831 C230.102600,253.855133 230.053009,251.427032 229.992828,248.553802 C232.634964,247.042358 235.287674,245.976013 238.023743,244.876175 C238.187347,249.349182 235.730438,253.384979 230.488434,256.182831 Z"/>
<path fill="#AA6ADD" d="M213.864822,262.856049 C216.709671,261.111115 219.654129,259.472321 222.598572,257.833527 C222.830078,258.318054 223.061584,258.802612 223.293076,259.287140 C220.485489,260.537567 217.677917,261.787994 214.515762,263.107574 C214.161194,263.176697 213.964432,262.962189 213.864822,262.856049 Z"/>
<path fill="#955CF7" d="M366.953339,245.280045 C367.341644,245.090942 367.571014,245.248001 367.864868,245.646301 C367.591431,245.741486 367.213104,245.654373 366.953339,245.280045 Z"/>

<path fill="none" d="M258.489563,267.151001 C258.055176,267.597473 257.404358,267.793091 256.753510,267.988678 C256.684692,267.778656 256.615875,267.568634 256.547028,267.358582 C257.122406,267.205780 257.697754,267.052979 258.489563,267.151001 Z"/>
<path fill="none" d="M331.476135,278.762146 C327.871002,276.928772 326.493011,274.333130 326.943817,270.573639 C327.255280,267.976410 326.907837,265.307159 327.069275,262.683319 C327.355042,258.038757 326.130920,254.376236 321.749359,251.922455 C320.443298,251.191025 319.881775,249.130096 319.009399,247.297028 C325.100464,244.810272 332.479248,248.722839 333.815521,254.750549 C334.493195,257.807404 333.190582,259.441254 329.512665,260.936340 C331.994324,264.319397 335.263428,267.582642 337.048798,271.518829 C339.169800,276.195038 337.233307,278.352417 331.476135,278.762146 Z"/>
<path fill="none" d="M292.401947,268.997742 C287.919647,268.511627 288.823212,265.222443 289.006531,262.862671 C289.217987,260.140198 290.304749,257.485687 291.090027,254.421173 C292.014191,254.344498 293.447815,254.461945 293.612579,254.981659 C294.954681,259.215088 296.059601,263.523712 297.398682,268.399231 C295.577332,268.606842 294.196838,268.764191 292.401947,268.997742 Z"/>
<path fill="none" d="M407.326019,261.184204 C405.180786,257.232025 403.770325,252.897949 399.064301,250.808929 C398.546722,250.579163 399.212952,247.682541 399.684448,245.863602 C403.573486,247.489105 407.759705,248.594406 410.492859,251.215134 C414.770599,255.316956 413.455536,258.757874 407.326019,261.184204 Z"/>
<path fill="none" d="M452.859619,275.355408 C446.890747,278.025879 444.260620,273.246246 440.539215,270.055847 C437.606934,264.469788 434.620605,259.185974 432.471100,253.581238 C431.759796,251.726532 433.204254,249.045029 433.859924,246.428894 C437.117645,247.886642 440.765198,249.090958 443.125488,251.537292 C449.323273,257.961060 454.138245,265.265228 452.859619,275.355408 Z"/>
<path fill="none" d="M119.340462,302.108948 C119.505669,301.678467 119.999374,301.177338 120.775253,300.840210 C120.594604,301.348938 120.131783,301.693634 119.340462,302.108948 Z"/>
</svg>
